<?xml version="1.0" encoding="UTF-8"?>
<svg version="1.1" viewBox="0 0 20 20" xmlns="http://www.w3.org/2000/svg" xmlns:xlink="http://www.w3.org/1999/xlink">
    <!--Generated by IJSVG (https://github.com/iconjar/IJSVG)-->
    <path d="M20,10v0c0,5.52285 -4.47715,10 -10,10c-5.52285,0 -10,-4.47715 -10,-10l1.13687e-13,1.50996e-06c-8.33927e-07,-5.52285 4.47715,-10 10,-10c5.52285,-8.33927e-07 10,4.47715 10,10c0,0 0,8.88178e-15 0,8.88178e-15Zm-2,0v0c0,-4.41828 -3.58172,-8 -8,-8c-4.41828,1.77636e-15 -8,3.58172 -8,8l9.14824e-14,1.20797e-06c6.67141e-07,4.41828 3.58172,8 8,8c4.41828,-6.67141e-07 8,-3.58172 8,-8Zm-8,2h-5v-4h5v-3l5,5l-5,5v-3Z" fill="#45A967"></path>
</svg>